<?xml version="1.0" encoding="UTF-8" standalone="no"?>
<!-- Created with Inkscape (http://www.inkscape.org/) -->
<svg
   xmlns:dc="http://purl.org/dc/elements/1.1/"
   xmlns:cc="http://creativecommons.org/ns#"
   xmlns:rdf="http://www.w3.org/1999/02/22-rdf-syntax-ns#"
   xmlns:svg="http://www.w3.org/2000/svg"
   xmlns="http://www.w3.org/2000/svg"
   xmlns:xlink="http://www.w3.org/1999/xlink"
   xmlns:sodipodi="http://sodipodi.sourceforge.net/DTD/sodipodi-0.dtd"
   xmlns:inkscape="http://www.inkscape.org/namespaces/inkscape"
   width="206.28856"
   height="103.93094"
   id="svg2"
   sodipodi:version="0.32"
   inkscape:version="0.46"
   sodipodi:docname="twtch_logo.svg"
   inkscape:output_extension="org.inkscape.output.svg.inkscape"
   version="1.0">
  <defs
     id="defs4">
    <linearGradient
       id="linearGradient3762">
      <stop
         style="stop-color:#ffffff;stop-opacity:0.33620688;"
         offset="0"
         id="stop3764" />
      <stop
         id="stop3772"
         offset="0.5"
         style="stop-color:#ffffff;stop-opacity:0;" />
      <stop
         style="stop-color:#ffffff;stop-opacity:0.33620688;"
         offset="1"
         id="stop3766" />
    </linearGradient>
    <inkscape:perspective
       sodipodi:type="inkscape:persp3d"
       inkscape:vp_x="0 : 526.18109 : 1"
       inkscape:vp_y="0 : 1000 : 0"
       inkscape:vp_z="744.09448 : 526.18109 : 1"
       inkscape:persp3d-origin="372.04724 : 350.78739 : 1"
       id="perspective10" />
    <filter
       inkscape:collect="always"
       id="filter3624">
      <feGaussianBlur
         inkscape:collect="always"
         stdDeviation="3.2018068"
         id="feGaussianBlur3626" />
    </filter>
    <filter
       inkscape:collect="always"
       id="filter3756"
       x="-0.090228804"
       width="1.1804576"
       y="-0.17909171"
       height="1.3581834">
      <feGaussianBlur
         inkscape:collect="always"
         stdDeviation="7.7554876"
         id="feGaussianBlur3758" />
    </filter>
    <linearGradient
       inkscape:collect="always"
       xlink:href="#linearGradient3762"
       id="linearGradient3770"
       x1="0"
       y1="52.323795"
       x2="206.07143"
       y2="52.323795"
       gradientUnits="userSpaceOnUse" />
    <filter
       inkscape:collect="always"
       id="filter3947">
      <feGaussianBlur
         inkscape:collect="always"
         stdDeviation="3.4794295"
         id="feGaussianBlur3949" />
    </filter>
  </defs>
  <sodipodi:namedview
     id="base"
     pagecolor="#ffffff"
     bordercolor="#666666"
     borderopacity="1.0"
     gridtolerance="10000"
     guidetolerance="10"
     objecttolerance="10"
     inkscape:pageopacity="0.0"
     inkscape:pageshadow="2"
     inkscape:zoom="1.979899"
     inkscape:cx="102.96735"
     inkscape:cy="62.964433"
     inkscape:document-units="px"
     inkscape:current-layer="layer1"
     showgrid="false"
     showguides="true"
     inkscape:guide-bbox="true"
     inkscape:window-width="1086"
     inkscape:window-height="722"
     inkscape:window-x="1285"
     inkscape:window-y="241" />
  <metadata
     id="metadata7">
    <rdf:RDF>
      <cc:Work
         rdf:about="">
        <dc:format>image/svg+xml</dc:format>
        <dc:type
           rdf:resource="http://purl.org/dc/dcmitype/StillImage" />
      </cc:Work>
    </rdf:RDF>
  </metadata>
  <g
     inkscape:label="Layer 1"
     inkscape:groupmode="layer"
     id="layer1"
     transform="translate(-113.92408,-206.27999)">
    <g
       id="g3338">
      <path
         sodipodi:nodetypes="cc"
         id="path3299"
         d="M 132.85714,276.64789 C 183.57143,269.50503 250.71428,268.07646 304.28571,276.64789"
         style="fill:none;fill-opacity:0.75;fill-rule:evenodd;stroke:#000000;stroke-width:1px;stroke-linecap:butt;stroke-linejoin:miter;stroke-opacity:1" />
      <path
         sodipodi:nodetypes="ccccc"
         id="path3287"
         d="M 133.57143,249.50504 L 133.57143,302.36218 C 188.57143,310.21932 244.28572,309.50504 303.57143,302.36218 L 303.57143,249.50504 C 251.42857,228.79076 186.72224,229.63526 133.57143,249.50504 z"
         style="fill:none;fill-opacity:0.75;fill-rule:evenodd;stroke:#000000;stroke-width:2;stroke-linecap:butt;stroke-linejoin:miter;stroke-miterlimit:4;stroke-dasharray:none;stroke-opacity:1" />
      <path
         sodipodi:nodetypes="cc"
         id="path3297"
         d="M 172.5,238.79075 C 201.07143,222.36218 237.70921,221.8571 264.13778,238.28567"
         style="fill:none;fill-opacity:0.75;fill-rule:evenodd;stroke:#000000;stroke-width:2;stroke-linecap:butt;stroke-linejoin:miter;stroke-miterlimit:4;stroke-dasharray:none;stroke-opacity:1" />
      <path
         sodipodi:nodetypes="ccccc"
         id="path3291"
         d="M 193.57143,308.07647 L 193.57143,225.21933 C 208.98102,214.67302 227.14286,214.50504 243.57143,225.21933 L 243.57143,306.6479 C 228.4015,310.51676 204.79728,308.90403 193.57143,308.07647 z"
         style="fill:#ffffff;fill-opacity:1;fill-rule:evenodd;stroke:#000000;stroke-width:2;stroke-linecap:butt;stroke-linejoin:miter;stroke-miterlimit:4;stroke-dasharray:none;stroke-opacity:1" />
      <path
         sodipodi:nodetypes="ccccc"
         id="path3293"
         d="M 207.08085,265.28133 C 213.15228,264.56705 222.20487,264.29919 227.91915,265.28133 L 227.91915,237.38213 C 227.91915,224.96699 207.08085,226.20523 207.08085,237.38213 L 207.08085,265.28133 z"
         style="fill:none;fill-opacity:0.75;fill-rule:evenodd;stroke:#000000;stroke-width:0.87597555px;stroke-linecap:butt;stroke-linejoin:miter;stroke-opacity:1" />
      <path
         style="fill:none;fill-opacity:0.75;fill-rule:evenodd;stroke:#000000;stroke-width:0.87597555px;stroke-linecap:butt;stroke-linejoin:miter;stroke-opacity:1"
         d="M 207.08085,301.7099 C 211.45585,302.51347 223.54415,302.42418 227.91915,301.7099 L 227.91915,280.23927 C 227.91915,267.82413 207.08085,269.06237 207.08085,280.23927 L 207.08085,301.7099 z"
         id="path3295"
         sodipodi:nodetypes="ccccc" />
    </g>
    <rect
       style="opacity:1;fill:url(#linearGradient3770);fill-opacity:1;fill-rule:nonzero;stroke:none;stroke-width:2;stroke-linecap:round;stroke-linejoin:round;stroke-miterlimit:4;stroke-dasharray:none;stroke-dashoffset:0;stroke-opacity:1"
       id="rect3760"
       width="206.07143"
       height="104.64286"
       x="0"
       y="0.0023671277"
       transform="translate(113.92408,206.27999)" />
    <path
       style="font-size:165.89736938px;font-style:normal;font-variant:normal;font-weight:300;font-stretch:normal;fill:#ffffff;fill-opacity:1;stroke:none;stroke-width:1px;stroke-linecap:butt;stroke-linejoin:miter;stroke-opacity:1;filter:url(#filter3624);font-family:AR PL UMing TW;-inkscape-font-specification:AR PL UMing TW Light"
       d="M 185.38099,207.89193 C 182.92936,215.38129 180.45134,222.86208 178.01691,230.35703 C 183.19647,234.26069 184.50656,229.92142 186.46851,225.7273 C 190.15423,217.72561 198.794,212.53213 207.72181,214.19957 C 216.30789,211.62076 211.67743,222.25848 212.81763,227.12554 C 212.51326,250.85985 213.40419,274.69937 212.41369,298.37379 C 210.15486,305.91157 200.06231,302.64235 194.39189,303.34532 C 191.7991,300.39847 195.87635,291.81474 195.87399,286.67871 C 198.80929,270.69304 200.92557,254.2181 204.30389,238.49792 C 208.67546,240.04849 209.41087,232.12765 205.82641,232.31458 C 200.97725,233.18268 191.40003,229.32272 193.67723,237.31717 C 193.61812,239.14748 199.00981,237.11122 197.09516,240.79725 C 195.00297,253.14322 192.91079,265.48918 190.81861,277.83515 C 189.13689,264.80231 186.30064,251.66261 185.25671,238.68435 C 188.41191,238.01795 192.09465,239.09146 190.6011,234.30319 C 188.91916,229.92607 179.30162,233.48457 174.41255,232.31458 C 167.91292,229.0507 165.94586,239.78069 172.51716,238.43577 C 177.61745,239.422 173.28042,246.24702 173.64695,249.48249 C 172.1414,259.07838 170.63585,268.67427 169.1303,278.27017 C 167.01651,265.05697 163.84811,251.69387 162.32552,238.56007 C 165.98638,238.59799 167.75748,237.59531 166.76882,233.30889 C 162.77346,231.00698 154.51927,232.96389 148.87131,232.31458 C 143.76641,231.25955 145.02089,240.44885 150.11419,238.59113 C 152.85741,239.7303 154.26986,247.11264 149.83455,245.27163 C 139.22862,245.27163 128.62269,245.27163 118.01675,245.27163 C 117.59259,250.0448 111.43426,257.67877 115.0649,260.49694 C 119.44275,263.05092 119.14645,255.46829 122.5222,253.50573 C 124.93437,250.87965 130.95242,250.3416 132.58955,252.29391 C 132.2395,267.17179 133.25178,282.35379 132.15454,297.06877 C 129.46509,301.39691 119.35714,294.80511 120.99967,302.0403 C 122.88267,306.45456 132.76686,302.86765 137.90287,304.02891 C 142.56805,302.57288 153.55694,307.44058 152.78639,300.54884 C 152.77009,295.48908 143.26334,301.42303 141.44509,296.63376 C 140.8378,281.58209 141.38227,266.39896 141.19652,251.29961 C 147.14086,249.84795 152.77438,253.05524 154.74394,258.69476 C 159.10691,275.20895 161.15436,292.41273 164.65593,309.18687 C 172.70004,311.77346 170.96341,302.96582 172.27591,297.68432 C 174.22066,285.19531 176.16538,272.70631 178.11013,260.21729 C 180.6733,276.54132 183.27897,292.85884 185.816,309.18687 C 191.81814,309.08843 196.10447,310.70578 202.65706,310.05689 C 217.19879,310.05689 231.74052,310.05689 246.28225,310.05689 C 245.87558,305.57327 245.60721,302.0806 250.13518,305.67572 C 257.9867,308.9449 268.12013,309.52122 274.86855,303.65605 C 279.46454,305.25375 287.03006,303.88194 292.76606,304.33963 C 297.4141,304.82417 295.84727,297.21065 291.2746,298.56023 C 287.3093,296.06086 290.43044,289.71654 289.41027,285.91389 C 287.30073,277.50707 291.63427,275.54334 299.35333,276.96514 C 308.38893,274.21646 304.51498,284.37732 305.2881,289.89112 C 305.42689,292.99074 306.36169,299.48049 301.31088,298.83987 C 294.50181,303.49808 305.01573,305.77661 310.35285,304.33963 C 315.96937,306.73717 324.70508,301.54628 317.31299,298.8088 C 311.57087,298.49086 314.80507,290.3563 313.95721,286.9082 C 314.38244,275.15357 313.17731,263.09184 314.42329,251.48604 C 316.12872,248.72583 321.71239,251.63072 319.82983,246.54558 C 317.94683,242.13131 308.06264,245.71823 302.92662,244.55697 C 297.74352,242.61872 298.03063,251.78389 302.98877,250.24316 C 307.49333,251.77162 304.27204,258.60361 305.2881,261.9884 C 307.06324,269.76044 304.1749,272.86903 296.33935,271.03037 C 287.18975,273.89305 289.53185,265.26403 289.41027,259.09869 C 289.37389,255.97161 288.19934,249.38343 293.3875,250.05672 C 300.19656,245.39852 289.68265,243.11999 284.34553,244.55697 C 282.34607,242.90376 284.86342,236.68015 279.51129,235.94303 C 256.21807,221.45044 228.29282,245.96654 230.49764,270.87501 C 230.15214,283.29531 235.43718,296.15894 245.78509,303.34532 C 239.63623,302.25474 230.65708,305.99672 226.30291,300.11383 C 223.5218,291.84155 226.04514,282.58289 225.18432,273.98221 C 225.18432,254.05466 225.18432,234.12711 225.18432,214.19957 C 233.40638,213.69373 243.2694,213.34289 248.39514,221.06649 C 251.0794,224.41601 252.86337,228.329 254.45419,232.2835 C 263.3055,232.0087 257.50252,224.37932 256.30596,219.07262 C 253.5976,214.71899 255.06156,204.58104 247.77371,206.52476 C 227.13149,206.52476 206.48929,206.52476 185.84708,206.52476 L 185.52624,207.46588 L 185.38099,207.89193 z M 263.90011,238.90185 C 269.76962,238.43846 275.94501,243.92984 274.86855,249.96351 C 278.13739,249.74401 277.33474,255.07497 280.67902,252.85322 C 280.82823,263.97285 280.69664,275.10159 280.74117,286.22461 C 277.39165,288.21022 275.36231,294.47323 271.1399,297.03769 C 262.05805,303.74848 248.989,297.75402 244.54221,288.30644 C 235.46032,272.19674 241.29733,247.36294 259.11501,239.80295 C 260.6469,239.23038 262.26996,238.98595 263.90011,238.90185 z"
       id="text3368" />
    <g
       id="g3326"
       transform="translate(1.5152288,-0.309676)">
      <text
         xml:space="preserve"
         style="font-size:165.89736938px;font-style:normal;font-variant:normal;font-weight:300;font-stretch:normal;fill:#000000;fill-opacity:1;stroke:none;stroke-width:1px;stroke-linecap:butt;stroke-linejoin:miter;stroke-opacity:1;font-family:AR PL UMing TW;-inkscape-font-specification:AR PL UMing TW Light"
         x="175.65912"
         y="321.0274"
         id="text3301"><tspan
           sodipodi:role="line"
           id="tspan3303"
           x="175.65912"
           y="321.0274">T</tspan></text>
      <text
         xml:space="preserve"
         style="font-size:121.47127533px;font-style:normal;font-variant:normal;font-weight:300;font-stretch:normal;fill:#000000;fill-opacity:1;stroke:none;stroke-width:1px;stroke-linecap:butt;stroke-linejoin:miter;stroke-opacity:1;font-family:AR PL UMing TW;-inkscape-font-specification:AR PL UMing TW Light"
         x="144.31865"
         y="316.86374"
         id="text3305"><tspan
           sodipodi:role="line"
           id="tspan3307"
           x="144.31865"
           y="316.86374">W</tspan></text>
      <text
         id="text3309"
         y="309.42776"
         x="111.72849"
         style="font-size:91.27057648px;font-style:normal;font-variant:normal;font-weight:300;font-stretch:normal;fill:#000000;fill-opacity:1;stroke:none;stroke-width:1px;stroke-linecap:butt;stroke-linejoin:miter;stroke-opacity:1;font-family:AR PL UMing TW;-inkscape-font-specification:AR PL UMing TW Light"
         xml:space="preserve"><tspan
           y="309.42776"
           x="111.72849"
           id="tspan3311"
           sodipodi:role="line">T</tspan></text>
      <text
         xml:space="preserve"
         style="font-size:116.86612701px;font-style:normal;font-variant:normal;font-weight:300;font-stretch:normal;fill:#000000;fill-opacity:1;stroke:none;stroke-width:1px;stroke-linecap:butt;stroke-linejoin:miter;stroke-opacity:1;font-family:AR PL UMing TW;-inkscape-font-specification:AR PL UMing TW Light"
         x="226.1378"
         y="314.284"
         id="text3313"><tspan
           id="tspan3321"
           sodipodi:role="line"
           x="226.1378"
           y="314.284">C</tspan></text>
      <text
         id="text3317"
         y="309.86948"
         x="272.67349"
         style="font-size:93.00744629px;font-style:normal;font-variant:normal;font-weight:300;font-stretch:normal;fill:#000000;fill-opacity:1;stroke:none;stroke-width:1px;stroke-linecap:butt;stroke-linejoin:miter;stroke-opacity:1;font-family:AR PL UMing TW;-inkscape-font-specification:AR PL UMing TW Light"
         xml:space="preserve"><tspan
           y="309.86948"
           x="272.67349"
           id="tspan3319"
           sodipodi:role="line">H</tspan></text>
    </g>
  </g>
</svg>
